<svg width="88" height="120" viewBox="0 0 88 120" fill="none" xmlns="http://www.w3.org/2000/svg">
<path fill-rule="evenodd" clip-rule="evenodd" d="M63.3398 50.1473C55.8565 52.2854 32.1435 52.2854 24.5631 50.1473C29.5195 56.5615 36.3224 61.5179 43.0282 66.1828C36.9055 67.6406 15.3305 64.725 9.40225 60.7404C10.5685 65.8912 18.8292 76.4844 23.2025 79.6915C32.1435 75.6097 40.1126 69.7786 44 66.3772C47.8874 69.7786 55.7593 75.6097 64.7003 79.6915C68.9765 76.5815 77.2372 65.8912 78.4034 60.7404C72.4751 64.725 50.9001 67.5434 44.7775 66.1828C51.6776 61.5179 58.3833 56.4643 63.3398 50.1473ZM64.6032 79.7886C51.7748 83.4817 36.2252 83.4817 23.494 79.7886C28.3533 86.3972 40.5013 92.5198 44.0972 94.7551C47.5958 92.5198 59.7439 86.3972 64.6032 79.7886ZM44 94.7551C33.6012 94.0748 21.6475 93.9776 11.929 89.5071C15.4277 95.6298 20.0926 100.878 26.7011 105.834C32.0463 102.627 39.0436 99.1284 44 94.7551ZM61.2989 106.029C51.4832 108.944 36.614 108.944 26.7983 106.029C30.1026 110.693 39.1408 116.816 44.0972 119.051C48.8592 116.816 57.8974 110.693 61.2989 106.029ZM44 119.051C36.7111 119.634 25.9236 115.455 19.2179 112.443C21.8419 110.791 24.7574 109.138 26.5068 106.029C20.0926 104.376 11.4431 102.433 6.09796 97.865C8.33321 95.3382 10.4713 92.9086 11.8319 89.5071C8.33321 88.8268 3.57116 86.6888 1.62747 85.4254C0.266882 83.676 -0.413411 73.7632 0.266882 71.2364C2.21058 69.4871 6.68107 65.5025 9.49943 60.7404C6.58389 59.963 4.15427 58.9911 1.4331 57.7277C1.62747 52.5769 3.18242 48.398 5.32049 43.8303C6.68107 40.9148 15.1361 36.0555 17.8573 33.8203C15.7192 32.7512 11.929 31.6822 10.4713 30.7104C11.5403 28.3779 14.2615 22.7412 17.177 20.7003C19.6066 19.6313 24.1743 18.0764 28.9364 14.0918C28.3533 13.8974 24.7574 12.9256 23.5912 11.565C27.4786 6.90011 31.4632 2.33243 37.7802 0C37.3914 0.971847 36.5168 5.15079 37.5858 6.90011C39.6267 5.63671 41.7648 1.36059 44 0.388739C46.2352 1.36059 48.3733 5.63671 50.4142 6.90011C51.4832 5.15079 50.6086 1.06903 50.2198 0C56.5368 2.23525 60.5214 6.80293 64.4088 11.565C63.2426 12.9256 59.6467 13.8974 59.0636 14.0918C63.8257 18.0764 68.3934 19.6313 70.823 20.7003C73.8357 22.7412 76.5569 28.3779 77.5287 30.7104C76.071 31.6822 72.1836 32.7512 70.1427 33.8203C72.8639 36.0555 81.3189 40.9148 82.6795 43.8303C84.9148 48.398 86.3725 52.5769 86.5669 57.7277C83.9429 58.9911 81.4161 59.963 78.5006 60.7404C81.3189 65.5025 85.6922 69.4871 87.7331 71.2364C88.4134 73.7632 87.7331 83.676 86.3725 85.4254C84.4288 86.6888 79.6668 88.8268 76.1681 89.5071C77.5287 92.9086 79.6668 95.3382 81.902 97.865C76.5569 102.53 68.0046 104.376 61.4932 106.029C63.2426 109.138 66.2553 110.791 68.7821 112.443C62.0764 115.455 51.2889 119.634 44 119.051ZM50.317 7.09448C44.8747 8.55225 43.1253 8.55225 37.7802 7.09448C39.0436 9.91284 41.4732 13.9946 43.6113 16.6186C39.7239 16.813 33.0181 16.2298 29.2279 14.0918C27.8673 18.2707 29.811 22.2553 30.7829 25.4624C34.9618 23.13 40.2098 19.8257 44.0972 16.4242C47.8874 19.9229 53.1354 23.13 57.4115 25.4624C58.3833 22.2553 60.327 18.2707 58.9664 14.0918C55.0791 16.2298 48.3733 16.7158 44.5831 16.6186C46.624 13.9946 48.9564 9.91284 50.317 7.09448ZM57.1199 25.7539C49.0536 27.7948 38.8492 27.7948 30.8801 25.7539C32.9209 31.6822 38.6548 35.4724 44 38.2908C49.4423 35.4724 55.1762 31.6822 57.1199 25.7539ZM43.8056 38.4851C37.2943 39.5542 23.1053 37.4161 18.1489 33.8203C19.0235 39.9429 22.3278 45.8712 24.5631 49.6614C31.5604 47.0374 38.3633 42.9556 43.8056 38.4851ZM44 94.7551C54.3988 94.0748 66.3525 93.9776 76.071 89.5071C72.5723 95.6298 67.9074 100.878 61.2989 105.834C55.9537 102.627 48.9564 99.1284 44 94.7551ZM44.1944 38.4851C50.7057 39.5542 64.8947 37.4161 69.8511 33.8203C68.9765 39.9429 65.6722 45.8712 63.4369 49.6614C56.4396 47.0374 49.6367 42.9556 44.1944 38.4851ZM11.8319 89.4099C8.91632 87.7578 1.23873 73.8604 0.558436 71.4308C7.167 74.6378 15.7193 78.8168 23.0081 79.6915C22.6194 79.983 12.5122 89.4099 11.8319 89.4099ZM9.49943 60.6432C8.13884 57.8249 4.64019 46.6487 5.32049 43.7331C10.2769 46.7458 18.0517 48.8839 24.2715 50.0501C19.7038 53.7431 14.6502 57.4362 9.49943 60.6432ZM18.0517 33.5287C17.8573 32.4597 16.3024 21.4778 17.177 20.7003C20.4813 23.5187 26.7011 24.5877 30.5885 25.7539C27.5758 28.0864 23.2997 31.585 18.0517 33.5287ZM29.1307 13.9946C29.0336 10.1072 29.811 6.9973 30.8801 4.27613C32.8238 5.44234 35.9337 6.60856 37.4886 7.09448C34.7675 9.32973 32.435 12.3425 29.1307 13.9946ZM76.1681 89.4099C79.0837 87.7578 86.7613 73.8604 87.4416 71.4308C80.833 74.6378 72.2807 78.8168 64.9919 79.6915C65.3806 79.983 75.4878 89.4099 76.1681 89.4099ZM78.5006 60.6432C79.8612 57.8249 83.3598 46.6487 82.6795 43.7331C77.7231 46.7458 69.9483 48.8839 63.7285 50.0501C68.2962 53.7431 73.3498 57.4362 78.5006 60.6432ZM69.9483 33.5287C70.1427 32.4597 71.6976 21.4778 70.823 20.7003C67.5187 23.5187 61.2989 24.5877 57.4115 25.7539C60.4242 28.0864 64.7003 31.585 69.9483 33.5287ZM58.8693 13.9946C58.9664 10.1072 58.189 6.9973 57.1199 4.27613C55.1762 5.44234 52.0663 6.60856 50.5114 7.09448C53.2325 9.32973 55.565 12.3425 58.8693 13.9946Z" fill="white"/>
</svg>
